<svg id="visual" viewBox="0 0 540 960" width="540" height="960" xmlns="http://www.w3.org/2000/svg" xmlns:xlink="http://www.w3.org/1999/xlink" version="1.1"><rect x="0" y="0" width="540" height="960" fill="#001220"></rect><defs><linearGradient id="grad1_0" x1="0%" y1="0%" x2="100%" y2="100%"><stop offset="30%" stop-color="#001220" stop-opacity="1"></stop><stop offset="70%" stop-color="#001220" stop-opacity="1"></stop></linearGradient></defs><defs><linearGradient id="grad2_0" x1="0%" y1="0%" x2="100%" y2="100%"><stop offset="30%" stop-color="#001220" stop-opacity="1"></stop><stop offset="70%" stop-color="#001220" stop-opacity="1"></stop></linearGradient></defs><g transform="translate(540, 0)"><path d="M0 297C-40.6 294.6 -81.3 292.1 -113.7 274.4C-146 256.7 -170.1 223.7 -194.5 194.5C-218.8 165.2 -243.4 139.7 -260.5 107.9C-277.7 76.1 -287.3 38.1 -297 0L0 0Z" fill="#FBAE3C"></path></g><g transform="translate(0, 960)"><path d="M0 -297C41.6 -293.2 83.2 -289.4 111 -267.9C138.7 -246.4 152.5 -207.2 181 -181C209.5 -154.8 252.6 -141.7 274.4 -113.7C296.2 -85.7 296.6 -42.8 297 0L0 0Z" fill="#FBAE3C"></path></g></svg>